#!OML:ASF E:/inclinewalkrobotboard/Project1/Captureday1/Session1/subject1.ASF
:FULLY-SPECIFIED
:DEGREES
126
root 0 0 0 1.485562911963864 -8.772780676348713 1.0351336432819778
lowerback 1.3496684384186517 -1.3160287820462333 -3.0250970918064395
upperback -1.0187186645445034 -1.6350294427275143 2.263706129113388
thorax -1.573354874144613 -0.7926955226044187 4.014767780899854
lowerneck -27.27424415382049 -1.999400265342134 -7.270237773065876
upperneck 10.56895111162473 -0.8627310270571199 4.864178120827747
head 7.620665508609073 -0.17295248786662915 2.6927079752076453
rclavicle -3.9037441281153086E-15 -7.857101408889881E-16
rhumerus -32.49542602837043 -5.394903310681529 -80.26974234568367
rradius 30.00634310177761
rwrist 18.52341812454132
rhand -17.56441746477779 9.90533514867234
rfingers 7.125019999999943
rthumb 8.687928751223982 -19.91304917027592
lclavicle -2.391377204567605E-15 -6.616222168828283E-16
lhumerus -10.214925651615202 8.95124659722281 89.33429428484045
lradius 60.21227857678004
lwrist -5.108694883342274
lhand -33.587678860205145 17.387199908828222
lfingers 7.125020000000008
lthumb -6.781181086635159 47.0205583934099
rfemur -23.573568749576275 -0.638122582218255 19.87580961447375
rtibia 70.4571395691403
rfoot -0.6302921104439285 -5.82212792022996
rtoes 6.651244214697243
lfemur -4.811189877780873 -2.4100729813321426 -27.273602311239003
ltibia 27.197451990674946
lfoot -11.646494741432129 -1.640084761051861
ltoes 8.533609068784909
127
root 0 0 0 1.5634646332746922 -8.827339160685112 1.105124707836245
lowerback 1.2506234726311782 -1.350652200588183 -3.087908565918245
upperback -0.9962563923411611 -1.6877288730010993 2.2836141620437043
thorax -1.4897342187149611 -0.8164721369892538 4.071612521410607
lowerneck -27.734098698706134 -2.053774108123313 -7.341279334793842
upperneck 9.883622625495722 -0.9232940400400135 5.036922360033072
head 7.442466286865168 -0.1615675400093795 2.7457167274795156
rclavicle -3.6712054778709685E-15 -7.41234319708626E-16
rhumerus -32.600644135641886 -5.519128937535463 -80.23570686817921
rradius 29.977290773844473
rwrist 18.69530752635528
rhand -17.508728463247422 9.792647446706443
rfingers 7.125019999999946
rthumb 8.741093090450486 -20.02784669553272
lclavicle -2.391124224924714E-15 -5.688222784118002E-16
lhumerus -9.712664358318891 8.725988918838116 89.0050910806381
lradius 60.69388021636446
lwrist -5.171419617365475
lhand -33.69521132580322 17.460791036262787
lfingers 7.125020000000008
lthumb -6.885637828305323 47.09116290327276
rfemur -26.986770483061903 -0.8270116319790883 18.702058444652835
rtibia 67.19052351423902
rfoot -2.8371137976496303 -6.658773857895493
rtoes 3.6387335201464683
lfemur 0.013941682626489538 -2.2676607439709198 -29.347809572380786
ltibia 25.109832403391213
lfoot -15.742150453286445 -0.9550866729212317
ltoes 6.6406876734341616
128
root 0 0 0 1.6623550969993581 -8.9057802439131 1.1937406199085432
lowerback 1.1411428724972337 -1.4013444620377258 -3.156959051561659
upperback -0.9502444755808175 -1.7640036772066674 2.310160974827201
thorax -1.3755757503364923 -0.8524985605361406 4.137528922372703
lowerneck -28.382444747609377 -2.1229935129666613 -7.4140246492807815
upperneck 8.986926244364996 -0.9929497550539018 5.2278779156170705
head 7.215888079947646 -0.14453088568117933 2.8002622252764433
rclavicle -3.230378176998266E-15 -7.395940529559239E-16
rhumerus -32.62976505023206 -5.475269439251034 -80.21408229206935
rradius 29.969581400656857
rwrist 18.75607108670419
rhand -17.505204733715093 9.750011227579545
rfingers 7.125019999999948
rthumb 8.744108713404326 -20.073418322691055
lclavicle -2.212824532726502E-15 -5.955691369159957E-16
lhumerus -9.224494695472842 8.448098763301203 88.65619079096535
lradius 61.177044637056376
lwrist -5.2019879133392735
lhand -33.7808090917792 17.551176513729807
lfingers 7.125020000000008
lthumb -6.96732080197587 47.17966288140103
rfemur -28.507186291204604 -0.40240820392958376 18.83496205453053
rtibia 61.13063294843748
rfoot -4.375680790238707 -7.971159256266221
rtoes 1.1068638952030545
lfemur 2.565333878347323 -2.134158976747795 -30.165259799710448
ltibia 24.401338881110753
lfoot -17.688782765165428 -0.8787446008896329
ltoes 4.985643539881664
129
root 0 0 0 1.7514520798941182 -8.979840669095623 1.2736497122340231
lowerback 1.067866812638035 -1.4541863806523088 -3.2053271102116705
upperback -0.8848455336369239 -1.8423102079408253 2.3356629451622486
thorax -1.2630697279626741 -0.8911108103180767 4.18937778762621
lowerneck -29.053567291236646 -2.1919441172248373 -7.456797868874078
upperneck 8.106407844030176 -1.0578694318007618 5.376129238075127
head 6.997054279005495 -0.12824087557266348 2.8353837733756655
rclavicle -2.5304245619559015E-15 -9.989234406429132E-16
rhumerus -32.60993701089538 -5.385852000371196 -80.18445038904567
rradius 29.9544591626229
rwrist 18.709171924203286
rhand -17.529664886393803 9.790372540927413
rfingers 7.125019999999947
rthumb 8.720139452695829 -20.037149218235186
lclavicle -1.8410703448060634E-15 -7.407224323275878E-16
lhumerus -9.109534063688049 8.12651181433193 88.50636996956587
lradius 61.44269862279111
lwrist -5.125524531358994
lhand -33.76868598012684 17.655107730446126
lfingers 7.125020000000007
lthumb -6.954467259757471 47.28646919857615
rfemur -29.967806163224914 0.6041054321149186 19.165141360638586
rtibia 51.43209625271744
rfoot -5.8359375517089775 -9.823288451622343
rtoes -1.6732616096776605
lfemur 4.113476349030421 -2.1670045494957773 -30.35407977358524
ltibia 23.902299170386627
lfoot -18.1924357579516 -1.114105918483817
ltoes 3.5384184260782927
130
root 0 0 0 1.8285688747173547 -9.049545297482078 1.3437537904799177
lowerback 1.0226849425294382 -1.506607689405535 -3.2359390995291415
upperback -0.8094536926628857 -1.9190995005908658 2.359203139113156
thorax -1.1570631593186957 -0.9300147560312224 4.22828394189418
lowerneck -29.711769834623258 -2.2565505369304333 -7.474312517442763
upperneck 7.287808617247574 -1.113203996782158 5.481727587712891
head 6.797668446731295 -0.1129055188356002 2.853586936521906
rclavicle -1.626602855438997E-15 -1.529834307321649E-15
rhumerus -32.56125801115803 -5.253308125204088 -80.13873824179531
rradius 29.927973334537395
rwrist 18.591356957835146
rhand -17.573996369029768 9.886839003649609
rfingers 7.125019999999945
rthumb 8.676769560594499 -19.946706454229393
lclavicle -1.3180100172951156E-15 -9.90066646739754E-16
lhumerus -9.443436565280296 7.718731251411369 88.59277752311218
lradius 61.48288047175558
lwrist -4.919874477152047
lhand -33.64200917666259 17.780382310397535
lfingers 7.125020000000006
lthumb -6.831134733146874 47.420543931716296
rfemur -31.581194480662326 2.0974979848579203 18.78192318765887
rtibia 39.540355108177934
rfoot -6.58934665137721 -11.58430022342693
rtoes -4.723549131517547
lfemur 6.757243667611338 -2.4770329968751628 -30.35401777757969
ltibia 22.55102985327443
lfoot -17.908155546766743 -1.7975934599453214
ltoes 0.9290233265977736
